<svg id="computer_mac_16" viewBox="0 0 16 16" fill="none" xmlns="http://www.w3.org/2000/svg"><path d="M11.333 2.16699C11.9474 2.16699 12.4591 2.16637 12.8633 2.2207C13.2817 2.277 13.6593 2.40055 13.9629 2.7041C14.2663 3.00764 14.39 3.38539 14.4463 3.80371C14.5006 4.20781 14.5 4.71973 14.5 5.33398V8.66699C14.5 9.28111 14.5006 9.79226 14.4463 10.1963C14.39 10.6147 14.2665 10.9933 13.9629 11.2969C13.6594 11.6002 13.2815 11.724 12.8633 11.7803C12.4591 11.8346 11.9474 11.834 11.333 11.834H9.93945L10.1514 12.833H11.334C11.6099 12.8332 11.8338 13.0571 11.834 13.333C11.834 13.609 11.61 13.8328 11.334 13.833H4.66699C4.39085 13.833 4.16699 13.6091 4.16699 13.333C4.16719 13.057 4.39097 12.833 4.66699 12.833H5.84863L6.06055 11.834H4.66699C4.05261 11.834 3.54086 11.8346 3.13672 11.7803C2.71846 11.724 2.34063 11.6002 2.03711 11.2969C1.73354 10.9933 1.61 10.6147 1.55371 10.1963C1.49942 9.79226 1.5 9.28111 1.5 8.66699V5.33398C1.5 4.71973 1.49942 4.20781 1.55371 3.80371C1.60999 3.38539 1.73366 3.00764 2.03711 2.7041C2.34066 2.40055 2.71834 2.277 3.13672 2.2207C3.54086 2.16637 4.05259 2.16699 4.66699 2.16699H11.333ZM6.86914 12.833H9.13086L8.91895 11.834H7.08105L6.86914 12.833ZM4.66699 3.16699C4.02452 3.16699 3.5925 3.16768 3.27051 3.21094C2.9629 3.2523 2.83101 3.32426 2.74414 3.41113C2.65733 3.49801 2.58528 3.63004 2.54395 3.9375C2.50073 4.25946 2.5 4.69171 2.5 5.33398V8.66699C2.5 9.3095 2.50066 9.7415 2.54395 10.0635C2.58531 10.3709 2.65729 10.503 2.74414 10.5898C2.83102 10.6766 2.96324 10.7478 3.27051 10.7891C3.59251 10.8323 4.02448 10.834 4.66699 10.834H11.333C11.9755 10.834 12.4075 10.8323 12.7295 10.7891C13.0368 10.7478 13.169 10.6766 13.2559 10.5898C13.3427 10.503 13.4147 10.3709 13.4561 10.0635C13.4993 9.7415 13.5 9.3095 13.5 8.66699V5.33398C13.5 4.69171 13.4993 4.25946 13.4561 3.9375C13.4147 3.63004 13.3427 3.49801 13.2559 3.41113C13.169 3.32426 13.0371 3.2523 12.7295 3.21094C12.4075 3.16768 11.9755 3.16699 11.333 3.16699H4.66699Z" fill="currentColor"></path></svg>