<svg id="transfer_screen_24" viewBox="0 0 24 24" fill="none" xmlns="http://www.w3.org/2000/svg"><path d="M12 1.75C13.6222 1.75 14.8919 1.74944 15.9043 1.8457C16.9276 1.94303 17.7652 2.14505 18.5039 2.59766C19.2776 3.07178 19.9282 3.7224 20.4023 4.49609C20.855 5.23477 21.057 6.07243 21.1543 7.0957C21.2506 8.10809 21.25 9.37781 21.25 11V13C21.25 14.6222 21.2506 15.8919 21.1543 16.9043C21.057 17.9276 20.855 18.7652 20.4023 19.5039C19.9282 20.2776 19.2776 20.9282 18.5039 21.4023C17.7652 21.855 16.9276 22.057 15.9043 22.1543C14.8919 22.2506 13.6222 22.25 12 22.25C10.3778 22.25 9.10809 22.2506 8.0957 22.1543C7.07243 22.057 6.23477 21.855 5.49609 21.4023C4.7224 20.9282 4.07178 20.2776 3.59766 19.5039C3.14505 18.7652 2.94303 17.9276 2.8457 16.9043C2.74944 15.8919 2.75 14.6222 2.75 13V11C2.75 9.37781 2.74944 8.10809 2.8457 7.0957C2.94303 6.07243 3.14505 5.23477 3.59766 4.49609C4.07178 3.7224 4.7224 3.07178 5.49609 2.59766C6.23477 2.14505 7.07243 1.94303 8.0957 1.8457C9.10809 1.74944 10.3778 1.75 12 1.75ZM4.28027 15.75C4.29344 16.1207 4.30976 16.4556 4.33887 16.7617C4.42574 17.6754 4.59196 18.2572 4.87598 18.7207C5.22641 19.2926 5.70744 19.7736 6.2793 20.124C6.74281 20.408 7.32458 20.5743 8.23828 20.6611C9.16317 20.7491 10.3489 20.75 12 20.75C13.6511 20.75 14.8368 20.7491 15.7617 20.6611C16.6754 20.5743 17.2572 20.408 17.7207 20.124C18.2926 19.7736 18.7736 19.2926 19.124 18.7207C19.408 18.2572 19.5743 17.6754 19.6611 16.7617C19.6902 16.4556 19.7066 16.1207 19.7197 15.75H4.28027ZM4.25293 9.75C4.25105 10.1349 4.25 10.5502 4.25 11V13C4.25 13.4498 4.25105 13.8651 4.25293 14.25H19.7471C19.749 13.8651 19.75 13.4498 19.75 13V11C19.75 10.5502 19.749 10.1349 19.7471 9.75H4.25293ZM12 3.25C10.3489 3.25 9.16317 3.25094 8.23828 3.33887C7.32458 3.42574 6.74281 3.59196 6.2793 3.87598C5.70744 4.22641 5.22641 4.70744 4.87598 5.2793C4.59196 5.74281 4.42574 6.32458 4.33887 7.23828C4.30976 7.54443 4.29344 7.87927 4.28027 8.25H19.7197C19.7066 7.87927 19.6902 7.54443 19.6611 7.23828C19.5743 6.32458 19.408 5.74281 19.124 5.2793C18.7736 4.70744 18.2926 4.22641 17.7207 3.87598C17.2572 3.59196 16.6754 3.42574 15.7617 3.33887C14.8368 3.25094 13.6511 3.25 12 3.25Z" fill="currentColor"></path></svg>